<?xml version="1.0" encoding="utf-8"?>
<svg width="48" height="48" viewBox="0 0 48 48" xmlns="http://www.w3.org/2000/svg">
  <rect x="4" y="11" width="40" height="26" rx="4" fill="#3d4b5c" stroke="#8a97a8" stroke-width="1.5"/>
  <g fill="#c7d0db" transform="matrix(1.155926, 0, 0, 1.133202, -1.128113, -2.279091)" style="">
    <rect x="8" y="15" width="4" height="4" rx="1"/>
    <rect x="14" y="15" width="4" height="4" rx="1"/>
    <rect x="20" y="15" width="4" height="4" rx="1"/>
    <rect x="26" y="15" width="4" height="4" rx="1"/>
    <rect x="32" y="15" width="4" height="4" rx="1"/>
  </g>
  <g transform="matrix(1.155926, 0, 0, 1.133202, -4.595891, -2.279091)" style="">
    <rect x="23" y="21" width="4" height="4" rx="1" fill="#c7d0db" style="stroke-width: 1;"/>
    <rect x="29" y="21" width="4" height="4" rx="1" fill="#c7d0db" style="stroke-width: 1;"/>
    <rect x="35" y="21" width="4" height="4" rx="1" fill="#c7d0db" style="stroke-width: 1;"/>
  </g>
  <rect x="8.568" y="21.391" width="11.176" height="11.502" rx="1.5" fill="#3daee9" style=""/>
  <text x="15.388" y="28.387" font-family="sans-serif" font-size="6" font-weight="bold" text-anchor="middle" fill="#082635" style="white-space: pre; font-size: 6px;" transform="matrix(1.372572, 0, 0, 1.510822, -7.019909, -12.568939)">FN</text>
  <rect x="21.99" y="28.317" width="18.267" height="4.532" rx="1" fill="#c7d0db" style=""/>
</svg>